<?xml version="1.0" standalone="no"?>
<!DOCTYPE svg PUBLIC "-//W3C//DTD SVG 20010904//EN"
 "http://www.w3.org/TR/2001/REC-SVG-20010904/DTD/svg10.dtd">
<svg version="1.0" xmlns="http://www.w3.org/2000/svg"
 width="1280.000000pt" height="1280.000000pt" viewBox="0 0 1280.000000 1280.000000"
 preserveAspectRatio="xMidYMid meet">
<metadata>
Created by potrace 1.15, written by Peter Selinger 2001-2017
</metadata>
<g transform="translate(0.000000,1280.000000) scale(0.100000,-0.100000)"
fill="#000000" stroke="none">
<path d="M10099 11524 c-217 -28 -1194 -196 -1224 -209 -5 -3 62 -3 150 -1 88
3 156 3 150 1 -5 -3 -239 -34 -520 -70 -280 -36 -573 -76 -650 -89 -77 -14
-203 -34 -280 -47 -77 -12 -151 -26 -165 -31 -30 -12 -312 -63 -395 -73 -104
-11 -664 -114 -710 -130 -24 -8 -111 -23 -192 -34 -81 -11 -439 -72 -794 -135
-356 -64 -653 -116 -660 -116 -7 0 -10 -2 -7 -5 3 -4 181 19 395 49 302 43
438 58 607 66 120 6 221 8 224 5 3 -3 -1 -5 -8 -5 -7 0 -234 -34 -505 -75
l-491 -75 -215 0 c-170 0 -237 -4 -323 -20 -60 -11 -112 -20 -115 -21 -3 0 3
-4 14 -8 12 -5 -20 -10 -85 -15 -58 -4 -157 -17 -220 -29 l-114 -22 -4 -43
c-4 -50 -9 -49 128 -25 78 13 192 16 625 19 l530 3 -242 -34 c-151 -20 -386
-43 -630 -60 -213 -14 -393 -28 -399 -30 -8 -2 -11 -32 -10 -87 l1 -83 440 -3
c392 -3 598 4 785 24 30 4 52 4 49 0 -5 -6 -459 -59 -779 -91 -85 -8 -233 -18
-328 -22 l-172 -6 0 -49 0 -48 140 0 c77 0 140 -4 140 -8 0 -5 -46 -15 -102
-22 -57 -7 -119 -16 -138 -19 l-35 -7 -2 -178 -2 -178 22 7 c23 7 155 24 195
24 17 1 22 7 22 27 0 22 -4 25 -21 21 -12 -3 -18 -2 -13 2 5 4 83 20 174 35
214 36 2270 405 2290 411 8 2 -16 2 -55 0 -38 -3 -148 -8 -244 -11 -159 -7
-174 -6 -168 9 10 27 -22 35 -107 26 -67 -8 -82 -7 -97 7 -11 10 -28 15 -44
12 -14 -3 -25 -2 -25 2 0 6 166 33 275 44 28 3 178 13 335 21 157 9 341 22
410 30 75 9 218 15 360 15 l236 0 299 54 c228 42 334 66 440 101 151 50 176
64 156 89 -11 13 -9 16 11 20 29 7 868 106 888 106 8 -1 -18 -15 -58 -32 -40
-17 -71 -32 -69 -34 8 -8 303 51 402 81 61 18 174 43 253 54 165 24 173 25
152 10 -12 -8 -11 -9 5 -5 96 24 222 30 188 8 -12 -9 -23 -62 -12 -62 4 0 42
27 83 60 42 33 84 60 95 60 48 0 51 6 51 116 l0 103 -87 -4 c-85 -3 -79 -2 35
11 l52 5 0 62 0 62 -47 -2 c-53 -3 -49 2 10 12 l37 6 0 70 0 70 -97 -5 c-115
-7 -112 -2 10 14 83 11 87 13 87 37 0 22 -3 24 -27 19 -16 -3 -159 -24 -319
-46 -281 -39 -300 -40 -561 -40 -488 0 -482 3 237 96 349 46 643 83 653 84 11
0 17 8 17 25 0 24 -3 25 -62 26 l-63 2 63 9 c60 9 62 11 62 40 0 23 -4 28 -17
24 -29 -8 -335 -54 -508 -75 -138 -17 -597 -38 -555 -26 15 5 1049 135 1069
135 6 0 11 11 11 25 0 30 28 31 -291 -11z m-264 -194 c-16 -4 -43 -8 -60 -8
-29 1 -29 1 5 8 19 4 46 7 60 8 22 0 22 -1 -5 -8z m-1475 -179 c0 -11 -38 -18
-145 -27 -105 -9 -89 6 23 21 117 16 122 16 122 6z m563 -28 c-46 -2 -120 -2
-165 0 -46 1 -9 3 82 3 91 0 128 -2 83 -3z m1202 -38 c-19 -8 -317 -46 -322
-42 -3 4 117 28 197 40 33 6 138 6 125 2z m-1120 -17 c-33 -5 -422 -40 -865
-78 -443 -38 -825 -72 -850 -76 -95 -13 -26 7 195 56 164 36 302 58 480 79
238 27 270 29 675 29 287 -1 405 -4 365 -10z m704 8 c-16 -16 -390 -101 -529
-121 -93 -13 -174 -27 -180 -30 -5 -3 -171 -17 -367 -30 -301 -21 -429 -25
-803 -24 -245 1 -438 3 -430 5 8 2 380 35 825 74 446 39 900 84 1010 100 138
19 243 28 339 29 77 1 137 -1 135 -3z m-2606 -143 c-7 -2 -19 -2 -25 0 -7 3
-2 5 12 5 14 0 19 -2 13 -5z m3065 -50 c-15 -2 -42 -2 -60 0 -18 2 -6 4 27 4
33 0 48 -2 33 -4z m-155 -10 c-18 -2 -48 -2 -65 0 -18 2 -4 4 32 4 36 0 50 -2
33 -4z m-193 -14 c-47 -4 -121 -7 -165 -6 l-80 1 85 6 c47 3 121 6 165 7 l80
0 -85 -8z m-2255 -39 c-104 -9 -563 -20 -525 -14 35 6 394 21 515 21 l100 0
-90 -7z m-845 -10 c-71 -17 -300 -39 -445 -43 -213 -7 -124 9 160 28 127 9
235 17 240 19 6 3 26 4 45 4 l35 0 -35 -8z m1575 -15 c-45 -18 -537 -95 -525
-82 8 8 289 68 360 77 68 8 182 11 165 5z m-655 -60 l-175 -43 -525 -26 c-289
-15 -711 -40 -939 -57 -228 -16 -418 -28 -423 -27 -6 2 205 36 469 76 l478 72
405 16 c223 9 486 19 585 23 327 14 324 15 125 -34z m2059 41 c-2 -2 -31 -6
-64 -9 -36 -3 -52 -2 -40 3 19 8 113 14 104 6z m-591 -63 c-16 -2 -40 -2 -55
0 -16 2 -3 4 27 4 30 0 43 -2 28 -4z m-100 -10 c-10 -2 -28 -2 -40 0 -13 2 -5
4 17 4 22 1 32 -1 23 -4z m620 -44 c-21 -5 -64 -18 -98 -29 -44 -15 -117 -24
-268 -35 -114 -8 -265 -19 -336 -25 -71 -6 -131 -8 -133 -6 -5 5 108 21 362
51 121 14 270 31 330 39 61 7 126 14 145 14 l35 0 -37 -9z m-2439 -33 c-2 -2
-71 -19 -154 -37 l-150 -32 -490 -3 c-269 -1 -481 0 -470 2 31 5 603 42 850
54 121 6 240 12 265 13 81 6 153 7 149 3z m1446 -1 c-16 -6 -806 -103 -974
-120 -152 -15 -299 -20 -289 -10 3 3 77 12 164 21 143 13 245 27 469 64 110
18 664 57 630 45z m-2400 -131 c-11 -2 -123 -15 -249 -29 -219 -24 -257 -25
-785 -24 l-556 1 115 19 c63 10 158 23 210 28 89 8 1309 13 1265 5z m1935 -40
c-204 -25 -280 -29 -155 -8 132 23 207 31 275 32 45 0 8 -7 -120 -24z m-1172
-11 c-26 -2 -71 -2 -100 0 -29 2 -8 3 47 3 55 0 79 -1 53 -3z m-828 -79 c-330
-67 -633 -110 -899 -129 -188 -13 -831 -21 -820 -10 5 5 474 51 884 86 132 12
373 34 535 49 162 15 322 28 355 28 57 0 55 -1 -55 -24z m675 15 c-22 -4 -60
-5 -85 -2 -54 6 -206 -15 -480 -67 -113 -22 -245 -42 -295 -44 l-90 -5 105 21
c565 112 522 106 710 106 118 0 162 -3 135 -9z m1393 -4 c-2 -3 -75 -25 -162
-50 -107 -30 -187 -47 -249 -51 -51 -4 -90 -4 -87 -1 12 12 273 78 360 91 105
15 146 19 138 11z m-359 -9 c-17 -17 -320 -87 -431 -100 -122 -15 -690 -47
-783 -45 -76 2 155 37 350 54 105 8 330 33 500 54 306 38 372 45 364 37z
m-2879 -357 c-25 -4 -65 -7 -90 -7 l-45 1 50 7 c28 4 68 7 90 7 l40 0 -45 -8z
m-508 -66 c-62 -2 -161 -2 -220 0 -59 1 -8 3 113 3 121 0 169 -2 107 -3z
m1105 1 c-3 -3 -12 -4 -19 -1 -8 3 -5 6 6 6 11 1 17 -2 13 -5z m238 -4 c-11
-5 -36 -8 -55 -8 -32 0 -33 1 -10 8 14 4 39 8 55 8 25 1 27 -1 10 -8z m-928
-75 c-48 -13 -233 -30 -210 -19 21 10 167 32 213 32 l45 0 -48 -13z"/>
<path d="M10310 10485 c-30 -7 -73 -14 -95 -14 -22 -1 -44 -5 -50 -9 -6 -4
-10 -59 -10 -130 0 -142 -14 -131 135 -104 92 17 95 19 98 46 l4 29 -84 -6
c-95 -7 -93 -2 7 16 l70 12 3 43 c3 40 2 42 -25 41 -15 0 -53 -4 -83 -9 -30
-4 -59 -4 -63 0 -9 8 91 30 140 30 31 0 33 2 33 35 0 39 2 38 -80 20z"/>
<path d="M10265 10179 c-49 -5 -94 -11 -100 -13 -12 -4 -11 -81 1 -81 25 1
171 17 196 22 25 5 28 10 28 44 0 31 -4 39 -17 38 -10 -1 -58 -6 -108 -10z"/>
<path d="M10270 9991 l-105 -16 -3 -54 -3 -54 63 7 c179 18 168 15 168 48 0
25 -3 28 -20 23 -11 -4 -20 -2 -20 4 0 6 9 11 20 11 15 0 20 7 20 25 0 14 -3
24 -7 24 -5 -1 -55 -9 -113 -18z"/>
<path d="M10275 9839 c-44 -5 -88 -10 -99 -11 -15 -2 -19 -12 -20 -51 l-1 -47
118 0 117 0 0 25 c0 24 -2 25 -77 26 l-78 2 78 10 c72 9 77 11 77 33 0 17 -5
24 -17 23 -10 -1 -54 -5 -98 -10z"/>
<path d="M10227 9700 c-32 -4 -59 -9 -61 -11 -10 -10 -10 -44 -1 -42 6 0 51 4
100 7 l90 7 -40 -22 c-22 -12 -67 -27 -100 -33 -32 -6 -58 -14 -57 -18 1 -5 2
-35 2 -68 l0 -60 48 -1 47 -1 -49 -17 c-47 -16 -50 -19 -50 -52 1 -39 -9 -38
134 -13 47 7 88 14 93 14 4 0 7 27 7 60 l0 60 -97 0 c-88 1 -96 2 -79 15 14
10 45 15 98 15 l78 0 0 85 0 85 -52 -1 c-29 -1 -79 -5 -111 -9z"/>
<path d="M4066 9445 c-48 -8 -93 -18 -98 -23 -5 -5 -8 -22 -6 -38 3 -27 6 -29
58 -33 l55 -4 -55 -11 -55 -11 -3 -74 -3 -74 58 7 c32 4 86 11 121 17 l62 11
0 94 0 94 -32 1 -33 1 30 7 c21 4 31 13 33 29 4 26 1 26 -132 7z"/>
<path d="M10315 9348 c-38 -5 -90 -12 -114 -16 l-44 -7 0 -55 0 -55 59 -4 59
-4 -59 -11 -59 -11 0 -40 c0 -22 4 -40 9 -40 5 0 57 7 117 15 l107 14 0 113
c0 62 -1 112 -2 112 -2 -1 -34 -6 -73 -11z"/>
<path d="M4100 9167 c-52 -10 -105 -21 -117 -23 -14 -3 -21 -11 -20 -24 2 -26
33 -26 145 -1 92 20 95 22 90 48 -3 17 -6 17 -98 0z"/>
<path d="M10250 9044 c-47 -7 -86 -13 -87 -13 -2 -1 -3 -14 -3 -31 l0 -30 115
0 115 0 0 45 c0 52 4 51 -140 29z"/>
<path d="M4065 9036 c-97 -11 -100 -12 -101 -36 -1 -38 1 -39 63 -24 74 17 72
18 66 -6 -4 -16 -15 -20 -67 -22 -58 -3 -61 -4 -64 -30 -3 -25 0 -28 25 -28
l28 -1 -27 -15 c-19 -10 -28 -23 -28 -39 l0 -25 120 0 120 0 0 120 c0 108 -2
120 -17 119 -10 -1 -63 -7 -118 -13z"/>
<path d="M10157 8953 c-2 -5 -3 -15 -3 -23 1 -12 22 -16 119 -18 l117 -3 0 26
0 25 -114 0 c-63 0 -117 -3 -119 -7z"/>
<path d="M10269 8865 c-53 -12 -101 -25 -107 -29 -14 -8 -2 -48 12 -43 6 3 58
15 114 27 94 21 102 25 102 47 0 27 1 27 -121 -2z"/>
<path d="M10252 8800 c-45 -11 -86 -21 -90 -24 -7 -4 -7 -85 1 -92 2 -2 54 1
115 8 109 11 112 12 112 36 0 24 -2 24 -47 19 -27 -3 -75 -8 -108 -11 l-60 -5
75 19 c41 11 90 19 108 20 27 0 32 4 32 25 0 31 -19 31 -138 5z"/>
<path d="M4055 8713 c-16 -2 -45 -6 -63 -9 l-32 -5 2 -72 3 -72 40 1 c22 0 75
4 118 8 l77 8 0 74 0 74 -57 -1 c-32 -1 -71 -4 -88 -6z"/>
<path d="M10251 8666 l-93 -11 0 -67 c0 -38 1 -69 3 -70 2 -1 55 5 117 12
l112 13 0 68 c0 79 16 73 -139 55z"/>
<path d="M4088 8523 c-59 -6 -112 -14 -118 -18 -5 -3 -10 -42 -10 -86 0 -75 1
-79 23 -79 30 0 208 28 214 33 2 3 3 40 1 83 l-3 79 -107 -12z"/>
<path d="M10277 8484 c-59 -11 -109 -23 -111 -25 -8 -8 -11 -38 -3 -40 4 -1
55 6 113 16 103 18 120 26 112 57 -2 12 -22 10 -111 -8z"/>
<path d="M10263 8405 c-105 -17 -106 -17 -108 -43 -2 -21 1 -22 117 -22 l118
0 0 40 c0 46 4 45 -127 25z"/>
<path d="M4155 8313 c-22 -8 -74 -25 -115 -37 -72 -21 -75 -23 -78 -54 -2 -19
2 -40 9 -48 8 -10 8 -14 0 -14 -6 0 -11 -16 -11 -36 l0 -37 48 7 c26 3 80 9
120 12 l72 7 0 78 0 79 -56 -25 c-31 -14 -68 -25 -83 -24 -16 0 1 10 49 26 86
29 93 34 88 60 -3 19 -5 19 -43 6z m18 -150 c-13 -2 -35 -2 -50 0 -16 2 -5 4
22 4 28 0 40 -2 28 -4z"/>
<path d="M10209 8293 c-36 -3 -48 -9 -52 -23 -2 -10 0 -23 6 -29 6 -6 7 -11 2
-11 -6 0 -9 -30 -7 -70 2 -38 7 -70 11 -70 14 0 176 21 199 26 21 4 22 9 22
94 l0 90 -67 -2 c-38 -1 -89 -3 -114 -5z"/>
<path d="M10262 8070 c-111 -35 -111 -35 -105 -60 3 -11 6 -20 7 -20 0 0 51
15 111 33 93 28 110 37 113 55 4 29 -9 28 -126 -8z"/>
<path d="M4085 8064 c-55 -7 -105 -16 -112 -18 -9 -4 -13 -28 -13 -77 l0 -72
58 7 c31 4 85 11 120 17 l62 11 0 74 c0 41 -3 73 -7 73 -5 -1 -53 -7 -108 -15z"/>
<path d="M4095 7873 c-146 -23 -135 -18 -135 -65 l0 -41 83 6 c45 4 99 7 120
7 l37 0 0 55 c0 30 -3 54 -7 54 -5 -1 -48 -8 -98 -16z"/>
<path d="M10157 7871 c-3 -11 -2 -22 1 -25 3 -3 37 -6 76 -7 l71 0 -74 -22
c-63 -19 -75 -26 -76 -45 -2 -28 -1 -28 125 8 58 17 106 30 107 30 2 0 3 18 3
40 l0 40 -114 0 c-104 0 -114 -2 -119 -19z"/>
<path d="M4160 7712 c-19 -8 -71 -27 -115 -43 -78 -27 -80 -29 -80 -61 l0 -33
118 -3 117 -3 0 26 c0 24 -2 25 -72 26 l-73 0 64 24 c73 27 84 35 79 62 -3 19
-5 19 -38 5z"/>
<path d="M10285 7693 c-132 -4 -131 -4 -127 -58 2 -25 7 -45 11 -45 3 0 53 14
111 30 58 17 106 30 107 30 2 0 3 11 3 25 0 14 -3 24 -7 23 -5 -1 -48 -3 -98
-5z"/>
<path d="M4062 7550 c-102 -11 -100 -9 -100 -79 0 -34 3 -63 7 -65 5 -3 53 2
189 20 l42 5 0 65 0 64 -32 -1 c-18 -1 -66 -5 -106 -9z"/>
<path d="M10268 7472 c-102 -25 -106 -27 -111 -55 -3 -26 -2 -28 22 -23 32 8
135 26 179 32 29 4 32 8 32 39 0 19 -3 34 -7 34 -5 -1 -56 -13 -115 -27z"/>
<path d="M4046 7369 c-38 -4 -73 -12 -78 -17 -5 -5 -8 -27 -6 -48 l3 -39 95 2
c75 2 87 0 55 -7 -22 -5 -59 -9 -82 -9 -55 -1 -73 -9 -73 -33 0 -20 4 -20 88
-14 48 4 102 9 120 12 l32 6 0 79 0 79 -42 -1 c-24 -1 -74 -5 -112 -10z"/>
<path d="M10159 7288 c0 -2 -1 -20 -2 -41 -2 -43 -6 -42 110 -27 119 16 123
17 123 45 l0 25 -115 0 c-63 0 -115 -1 -116 -2z"/>
<path d="M10255 7131 l-90 -17 -3 -32 -3 -32 73 -1 c62 -1 68 -2 38 -9 -19 -5
-52 -12 -72 -15 l-38 -6 0 -74 c0 -41 1 -78 3 -82 3 -10 71 -5 157 10 l65 12
3 37 3 38 -78 -6 c-43 -3 -85 -8 -93 -10 -8 -3 -11 -2 -7 2 4 4 44 19 90 34
l82 26 3 42 c2 29 -1 42 -9 42 -10 0 -10 3 -1 12 7 7 12 20 12 30 0 22 -13 22
-135 -1z"/>
<path d="M3967 7093 c-2 -5 -5 -41 -6 -80 -3 -84 -6 -82 94 -58 33 8 79 15
103 15 l42 0 0 65 0 65 -114 0 c-63 0 -117 -3 -119 -7z"/>
<path d="M4088 6866 c-58 -19 -111 -37 -117 -40 -6 -4 -11 -26 -11 -48 l0 -41
78 7 c151 13 162 16 162 43 0 21 -3 23 -32 19 -66 -10 -138 -17 -138 -13 0 3
38 17 85 31 77 24 85 29 85 51 0 14 -1 25 -2 24 -2 0 -51 -15 -110 -33z"/>
<path d="M10263 6842 c-88 -22 -102 -29 -106 -49 -4 -23 -4 -23 112 -24 l116
-1 -100 -14 c-55 -7 -106 -15 -114 -16 -10 -2 -13 -20 -13 -63 0 -33 5 -59 10
-58 49 11 145 23 180 23 l42 0 0 115 c0 86 -3 115 -12 114 -7 -1 -59 -13 -115
-27z"/>
<path d="M4080 6685 l-115 -21 0 -89 c0 -75 2 -89 15 -86 8 2 33 6 55 8 l40 3
-45 -18 c-66 -25 -69 -28 -66 -75 l3 -42 59 -5 59 -5 -60 -15 -60 -16 -2 -134
c-2 -74 -1 -140 1 -146 3 -8 39 -3 118 15 l113 27 3 82 3 82 -42 -6 c-31 -5
-40 -4 -35 4 4 7 23 12 42 12 30 0 34 3 34 25 0 24 -1 25 -62 20 l-63 -4 63
16 62 16 0 41 0 41 -112 -2 -113 -2 110 38 110 38 3 56 c2 31 2 81 0 110 l-3
52 -115 -20z"/>
<path d="M10157 6581 c-3 -11 -2 -22 1 -25 3 -3 56 -6 119 -6 l113 0 0 25 0
25 -114 0 c-104 0 -114 -2 -119 -19z"/>
<path d="M10256 6461 l-98 -16 0 -80 c1 -62 4 -79 14 -76 7 3 59 7 116 9 l102
4 0 89 c0 79 -2 89 -17 88 -10 -1 -62 -9 -117 -18z m-19 -107 c-3 -3 -12 -4
-19 -1 -8 3 -5 6 6 6 11 1 17 -2 13 -5z"/>
<path d="M10159 6248 c0 -2 -2 -13 -3 -25 -3 -23 -1 -23 116 -23 l118 0 0 25
0 25 -115 0 c-63 0 -115 -1 -116 -2z"/>
<path d="M10376 6183 c-4 -5 -55 -10 -113 -13 l-105 -5 -1 -88 c-2 -81 -1 -87
18 -87 20 -1 20 -1 1 -15 -19 -15 -20 -21 -17 -138 l1 -39 53 7 c28 3 80 11
115 17 59 10 62 11 62 39 0 28 -1 28 -67 32 l-68 3 68 2 c64 2 67 3 67 27 0
24 -2 25 -72 26 l-73 1 40 19 c22 10 54 19 72 19 l32 0 0 100 c0 55 -1 100 -3
100 -1 0 -6 -3 -10 -7z"/>
<path d="M3967 5993 c-8 -8 -9 -77 -2 -85 4 -3 25 -1 47 4 23 5 73 12 112 16
l71 7 3 33 3 32 -114 0 c-62 0 -117 -3 -120 -7z"/>
<path d="M3967 5883 c-2 -5 -4 -32 -5 -60 -2 -49 0 -53 21 -53 13 0 46 7 73
15 27 8 63 15 81 15 53 0 63 8 63 51 l0 39 -114 0 c-63 0 -117 -3 -119 -7z"/>
<path d="M4110 5769 c-36 -5 -84 -12 -105 -17 l-40 -8 -3 -122 c-3 -141 -17
-129 128 -107 52 8 98 15 103 15 4 0 7 31 7 68 l0 68 -67 -7 c-38 -5 -84 -8
-103 -8 -35 0 -35 0 20 25 30 14 76 31 103 37 42 10 47 15 47 39 0 16 -5 27
-12 27 -7 -1 -42 -5 -78 -10z"/>
<path d="M10265 5763 c-27 -2 -63 -5 -80 -8 l-30 -5 0 -90 0 -90 118 0 117 0
0 68 0 68 -97 -8 c-135 -11 -141 -4 -10 12 102 12 107 14 107 36 0 26 4 25
-125 17z"/>
<path d="M4065 5497 c-94 -21 -100 -23 -100 -47 0 -14 6 -25 13 -24 6 1 59 2
117 3 l105 1 0 45 c0 53 6 52 -135 22z"/>
<path d="M10274 5491 c-55 -15 -105 -31 -111 -34 -15 -9 -4 -49 11 -44 15 6
152 43 189 51 20 5 27 12 27 31 0 30 9 30 -116 -4z"/>
<path d="M10251 5411 c-85 -14 -95 -18 -96 -38 -2 -22 1 -23 89 -24 102 -1
101 -4 -5 -22 l-74 -13 -5 -47 c-4 -26 -4 -50 -1 -52 2 -3 55 -5 118 -5 l113
0 0 24 c0 20 -6 25 -32 29 l-33 4 33 1 32 2 0 80 c0 93 12 88 -139 61z"/>
<path d="M3967 5393 c-10 -22 1 -38 28 -42 l30 -4 -30 -6 c-28 -6 -30 -9 -33
-60 l-3 -54 78 7 c43 3 97 9 121 12 l42 6 0 74 0 74 -114 0 c-63 0 -117 -3
-119 -7z"/>
<path d="M4060 5206 c-41 -6 -80 -15 -87 -19 -15 -9 -9 -43 7 -39 7 2 59 8
116 14 98 11 104 13 104 35 0 27 -18 28 -140 9z"/>
<path d="M10160 5165 c0 -8 0 -18 0 -22 0 -5 28 -11 62 -14 l63 -6 -61 -1
c-52 -2 -62 -5 -67 -21 -7 -28 -1 -31 67 -33 44 -1 50 -2 21 -5 -76 -6 -82
-10 -87 -49 l-4 -37 70 7 c39 3 92 9 119 12 l47 7 0 88 0 89 -115 0 c-96 0
-115 -3 -115 -15z"/>
<path d="M4071 5097 c-89 -27 -105 -35 -107 -54 -2 -13 1 -23 7 -23 6 0 59 14
120 32 99 28 109 33 109 55 0 28 -1 28 -129 -10z"/>
<path d="M4060 5009 c-98 -12 -100 -12 -100 -54 0 -27 4 -35 18 -35 14 0 14
-2 3 -9 -17 -11 -23 -38 -11 -46 7 -5 109 6 198 21 l32 5 0 64 0 65 -32 -1
c-18 -1 -67 -5 -108 -10z"/>
<path d="M10275 4909 c-60 -10 -111 -18 -111 -18 -5 -2 -11 -40 -8 -44 5 -5
224 30 231 36 2 3 3 14 1 24 -3 18 -6 18 -113 2z"/>
<path d="M4056 4841 c-75 -5 -90 -9 -92 -23 -1 -10 2 -20 7 -24 5 -3 58 -2
119 2 107 7 110 8 110 30 0 20 -5 24 -27 22 -16 -1 -68 -4 -117 -7z"/>
<path d="M10250 4832 c-85 -15 -95 -19 -92 -37 2 -11 9 -23 15 -27 9 -6 9 -8
1 -8 -7 0 -14 -9 -17 -20 -6 -24 1 -25 136 -8 93 11 97 13 97 36 0 24 -2 24
-47 18 -109 -15 -150 -14 -55 1 95 16 102 18 102 40 0 28 -7 28 -140 5z"/>
<path d="M4080 4656 l-115 -21 0 -55 0 -55 100 -10 c99 -10 111 -24 22 -26
-23 0 -60 -3 -82 -7 -34 -6 -40 -11 -40 -32 0 -16 5 -24 15 -23 8 1 61 7 118
13 l102 12 0 59 0 58 -37 4 -38 4 38 1 37 2 0 50 c0 28 -1 49 -2 49 -2 -1 -55
-11 -118 -23z"/>
<path d="M10270 4662 l-115 -3 3 -110 3 -111 87 5 87 6 -87 -21 c-86 -21 -86
-21 -90 -56 -5 -38 7 -48 47 -38 14 4 25 2 25 -3 0 -5 -17 -11 -37 -13 -32 -2
-37 -6 -35 -23 2 -11 5 -21 7 -23 4 -5 215 25 221 31 2 2 3 85 2 183 l-3 179
-115 -3z"/>
<path d="M4105 4394 c-140 -28 -140 -28 -140 -49 0 -24 21 -23 153 2 75 14 82
18 82 39 0 27 1 27 -95 8z"/>
<path d="M9126 4390 c-153 -28 -357 -99 -524 -182 -78 -39 -145 -75 -148 -79
-7 -12 152 -11 461 1 203 8 331 21 680 65 237 31 443 58 460 61 l29 6 -35 18
c-34 18 -41 17 -444 -36 -226 -29 -426 -53 -445 -53 -19 1 150 29 377 62 226
34 414 65 417 68 8 8 -124 47 -222 65 -45 9 -163 17 -287 19 -179 4 -226 2
-319 -15z m159 -125 c-87 -16 -324 -39 -331 -32 -6 6 55 15 221 32 155 16 198
16 110 0z"/>
<path d="M4170 4274 c-8 -3 -58 -8 -110 -12 l-95 -7 0 -55 0 -55 118 -3 117
-3 0 26 c0 24 -2 25 -77 26 l-78 2 75 13 c41 7 76 13 78 13 6 2 1 61 -5 60 -5
-1 -15 -3 -23 -5z"/>
<path d="M10325 4237 c-33 -4 -251 -41 -485 -82 l-425 -75 -520 0 -520 0 -55
-37 -55 -38 290 -4 290 -3 -342 -48 c-188 -26 -353 -50 -365 -54 -21 -5 -98
-69 -98 -81 0 -3 31 -5 70 -5 54 0 68 -3 64 -13 -12 -33 21 -37 317 -39 l294
-3 -230 -44 c-217 -42 -243 -45 -454 -50 l-223 -6 -36 -42 -35 -43 144 -1
c162 -1 140 -12 -49 -24 l-112 -7 -30 -36 -30 -37 117 -5 c127 -5 126 -6 -47
-36 -72 -12 -99 -21 -112 -38 -24 -29 -22 -36 10 -31 15 3 245 25 512 50 267
24 510 47 540 51 30 3 53 3 50 0 -5 -4 -1149 -196 -1171 -196 -10 0 -53 -120
-45 -127 3 -4 479 -7 1056 -7 578 -1 1047 -2 1042 -3 -39 -13 -746 -117 -842
-124 -69 -6 -389 -13 -712 -16 -566 -5 -588 -6 -588 -24 0 -18 18 -19 458 -22
l457 -2 -457 -3 -458 -2 0 -40 0 -40 208 -1 c202 -1 205 -2 137 -15 -38 -7
-118 -13 -176 -13 -59 -1 -121 -4 -138 -7 -30 -6 -32 -10 -29 -42 l3 -35 335
2 c184 0 524 3 755 6 l420 5 -205 -60 -205 -60 -539 0 c-487 0 -538 -2 -532
-16 3 -9 6 -20 6 -25 0 -5 173 -9 423 -10 330 0 417 -3 397 -12 -17 -8 -141
-13 -400 -15 -206 -1 -381 -5 -388 -7 -10 -4 -10 -10 -2 -25 10 -19 21 -20
172 -20 89 0 159 -2 156 -5 -2 -3 -67 -12 -143 -20 -76 -9 -141 -18 -144 -21
-3 -2 3 -12 12 -21 14 -14 43 -16 214 -14 121 1 192 -2 183 -8 -8 -5 -84 -21
-169 -35 -85 -15 -156 -28 -158 -30 -7 -7 133 -123 180 -150 l45 -26 633 2
634 3 145 71 c155 77 266 143 238 144 -9 0 -99 -7 -199 -15 -100 -9 -183 -14
-185 -12 -11 11 209 37 307 37 l111 0 62 44 c33 24 77 58 96 75 l35 30 -418
-2 c-229 -1 -417 1 -417 4 0 18 183 32 518 38 l373 8 37 34 c48 45 62 63 52
67 -12 5 -534 -36 -688 -53 -85 -10 -198 -15 -297 -13 l-160 3 220 62 220 62
395 7 395 7 19 24 19 25 -314 -6 -314 -6 65 20 c57 17 96 19 326 20 l261 0 27
38 26 37 -127 5 c-71 3 -126 7 -123 8 6 3 250 32 267 32 11 0 67 90 60 97 -2
1 -185 -6 -407 -17 -221 -12 -404 -19 -406 -18 -2 2 135 25 304 51 241 38 332
48 425 47 l118 0 15 36 c13 30 13 38 2 45 -10 7 -9 9 4 9 14 0 36 37 26 44 -1
2 -120 -10 -263 -27 -253 -28 -276 -29 -865 -34 -333 -2 -602 -2 -600 1 3 3
125 12 270 20 163 10 410 33 640 61 273 34 439 49 609 56 129 5 235 10 236 11
2 2 6 21 9 43 l7 41 -223 -27 c-139 -16 -311 -29 -453 -33 -145 -5 -522 -33
-1021 -77 -435 -38 -797 -69 -805 -68 -23 2 300 57 521 89 226 32 450 52 880
75 546 30 806 46 904 55 54 6 122 10 152 10 l54 0 0 36 c0 29 -3 34 -17 30
-60 -18 -233 -26 -557 -26 -203 0 -367 3 -363 6 14 15 707 84 837 84 l100 0 0
69 c0 58 -3 70 -17 74 -17 4 -17 5 0 6 15 1 17 12 17 79 l0 77 -147 -6 c-273
-12 -528 -18 -508 -13 11 2 51 12 89 20 102 24 156 49 156 74 0 11 -4 20 -10
20 -5 0 -10 5 -10 10 0 6 78 10 215 10 l215 0 0 35 0 35 -337 2 -338 3 95 17
c52 9 203 35 334 57 132 23 241 43 243 45 3 2 3 13 1 23 -3 17 -9 18 -63 10z
m-578 -247 c70 -6 135 -13 143 -16 27 -11 -70 -34 -312 -74 l-238 -40 -547 1
c-302 1 -539 4 -528 6 11 2 225 33 475 67 435 61 464 64 667 65 117 1 270 -4
340 -9z m-407 -255 c-80 -13 -226 -40 -326 -59 -170 -34 -191 -36 -365 -35
-101 1 -175 4 -164 7 11 3 142 29 290 58 l270 52 220 0 220 0 -145 -23z m745
15 c-27 -5 -106 -11 -175 -13 l-125 -6 110 13 c61 7 139 13 175 13 l65 0 -50
-7z m-395 -35 c-148 -21 -399 -47 -412 -43 -26 9 356 55 457 56 37 0 24 -4
-45 -13z m-115 -141 c-60 -7 -195 -27 -299 -44 -105 -16 -192 -28 -194 -25 -7
7 9 11 148 40 165 34 235 42 355 43 l100 0 -110 -14z m-667 -9 c-7 -8 -324
-37 -356 -33 -52 6 153 36 257 37 57 0 102 -1 99 -4z m531 -109 c-2 -3 -96 -9
-209 -15 -113 -6 -221 -14 -240 -17 -19 -3 -32 -3 -28 1 16 16 176 33 322 34
88 1 157 -1 155 -3z m844 -253 c-7 -2 -19 -2 -25 0 -7 3 -2 5 12 5 14 0 19 -2
13 -5z m-308 -204 c-16 -5 -159 -22 -316 -39 -254 -27 -318 -30 -575 -29 -284
2 -288 2 -199 15 76 12 935 61 1075 62 42 0 43 -1 15 -9z m-1512 -156 c-46 -2
-120 -2 -165 0 -46 1 -9 3 82 3 91 0 128 -2 83 -3z m887 -14 c-77 -24 -142
-27 -530 -32 l-295 -4 245 27 c181 20 297 27 445 28 l200 0 -65 -19z m-530
-261 c-42 -11 -280 -26 -280 -17 0 14 93 27 200 27 90 0 107 -2 80 -10z m-361
-73 c-13 -12 -159 -35 -226 -35 -42 0 -74 2 -71 5 13 13 142 33 217 34 46 1
82 -1 80 -4z m1176 -1 c-5 -2 -66 -12 -135 -23 -112 -17 -165 -18 -523 -13
-218 3 -395 7 -393 10 3 2 31 10 63 17 42 9 187 13 528 13 259 0 466 -1 460
-4z m-675 -83 l95 -6 -155 -25 c-138 -22 -192 -25 -500 -28 -189 -2 -342 -1
-339 2 3 3 68 19 145 35 134 28 149 29 399 29 143 0 303 -3 355 -7z"/>
<path d="M4000 4101 c-35 -6 -35 -6 -36 -59 l-1 -54 31 6 c17 3 70 9 119 12
l87 7 0 48 0 49 -82 -1 c-46 -1 -99 -4 -118 -8z"/>
<path d="M3964 3877 c-2 -7 -3 -24 -1 -37 4 -25 5 -25 120 -28 l117 -3 0 41 0
40 -115 0 c-85 0 -117 -3 -121 -13z"/>
<path d="M4075 3751 l-110 -6 -3 -149 -3 -149 53 7 c29 3 83 9 121 12 65 7 67
8 67 35 0 24 -5 28 -32 32 l-33 4 33 1 32 2 0 110 c0 61 -3 109 -7 108 -5 -1
-57 -4 -118 -7z"/>
<path d="M4067 3435 c-115 -19 -107 -10 -107 -124 0 -55 3 -101 8 -103 4 -2
58 -2 120 0 l112 4 0 119 0 119 -27 -1 c-16 -1 -63 -7 -106 -14z"/>
<path d="M2975 3286 c-243 -41 -485 -134 -725 -278 l-105 -63 70 -5 c60 -4 65
-6 35 -12 -19 -4 -62 -10 -95 -14 -43 -5 -71 -15 -99 -35 -48 -35 -47 -35 134
-8 77 11 146 19 153 16 14 -4 -301 -67 -341 -67 -17 0 -44 -15 -72 -40 l-45
-39 45 -2 45 -1 -63 -12 c-57 -12 -70 -19 -120 -69 -31 -31 -54 -59 -51 -62 3
-2 39 -1 80 5 66 8 913 12 864 4 -94 -17 -656 -54 -807 -54 l-186 0 -32 -40
-32 -40 29 0 c15 0 105 7 198 15 122 11 299 14 625 13 317 0 428 -3 365 -9
-140 -13 -954 -49 -1106 -49 -134 0 -137 0 -153 -25 -9 -13 -16 -27 -16 -30 0
-3 107 -4 238 -1 275 6 247 -5 -60 -24 -202 -13 -208 -14 -224 -37 -8 -14 -14
-26 -12 -27 2 -1 48 1 103 5 113 8 741 12 734 4 -3 -2 -41 -11 -85 -20 -61
-12 -157 -15 -425 -15 l-347 0 -21 -45 c-12 -25 -21 -47 -21 -50 0 -2 64 -6
143 -7 138 -3 141 -3 92 -16 -27 -7 -98 -16 -157 -19 l-106 -5 -21 -64 c-12
-36 -21 -69 -21 -74 0 -7 477 -10 1354 -10 l1353 0 17 43 c9 23 16 46 16 50 0
4 -541 8 -1202 9 l-1203 3 1210 5 c1142 5 1210 6 1213 23 3 16 -33 17 -644 17
-356 0 -645 2 -642 5 14 15 535 35 899 35 l407 0 11 44 c6 25 11 47 11 50 0 3
-374 6 -832 6 -457 0 -829 2 -826 5 3 3 54 12 114 20 87 12 258 15 832 15 715
0 722 0 722 20 0 20 -7 20 -567 20 -311 0 -564 2 -562 5 3 2 41 11 85 20 64
12 172 15 567 15 l487 0 0 25 0 25 -392 2 c-305 1 -364 3 -263 9 72 4 177 15
235 25 58 9 176 19 263 21 l157 4 0 25 0 24 -232 1 c-206 1 -230 2 -203 14 22
11 83 14 233 15 l202 0 0 40 0 40 -117 0 -118 1 55 29 c43 23 68 29 118 30
l63 0 -3 158 -3 157 -75 5 c-70 5 -72 6 -35 13 117 24 115 23 115 78 0 46 -1
49 -22 44 -13 -3 -66 -11 -118 -18 -84 -11 -95 -15 -95 -32 0 -23 29 -25 125
-12 97 14 49 0 -122 -37 l-168 -36 -247 1 c-242 1 -246 1 -173 15 87 16 299
34 415 35 44 0 98 3 120 7 l40 8 -29 19 c-27 18 -38 18 -245 7 -165 -9 -272
-21 -451 -52 -200 -34 -255 -40 -370 -39 l-135 1 165 29 c162 27 550 78 765
99 144 15 163 19 144 31 -27 17 -166 58 -255 74 -123 22 -462 29 -569 11z m84
-70 c-6 -6 -217 -36 -247 -35 -19 1 -14 4 18 10 91 18 239 34 229 25z m790
-310 c-2 -2 -98 -9 -214 -15 -115 -6 -237 -13 -270 -16 -103 -8 -45 5 86 19
112 12 408 21 398 12z m111 -53 c-14 -2 -99 -17 -190 -33 -147 -27 -188 -30
-355 -29 -209 0 -217 10 -25 28 250 25 666 50 570 34z m-1555 -23 c14 -6 0 -9
-45 -8 -47 0 -58 2 -40 8 33 11 60 11 85 0z m1718 -17 c-13 -2 -35 -2 -50 0
-16 2 -5 4 22 4 28 0 40 -2 28 -4z m-163 -98 c0 -3 -28 -19 -62 -36 l-63 -29
-279 0 c-157 1 -275 5 -270 10 5 4 59 20 119 33 99 23 132 26 333 26 122 1
222 -1 222 -4z m-785 -37 c-55 -19 -86 -21 -359 -24 -164 -2 -296 0 -292 3 6
6 519 40 636 41 l75 1 -60 -21z m450 -113 c-24 -11 -117 -14 -475 -13 l-445 1
255 12 c140 6 354 12 475 13 194 0 216 -1 190 -13z m-462 -122 c-29 -2 -78 -2
-110 0 -32 2 -8 3 52 3 61 0 87 -1 58 -3z m-286 -60 c-15 -14 -201 -32 -341
-33 -82 0 -147 3 -144 6 7 6 320 31 422 33 38 0 66 -2 63 -6z m-568 -217 c-5
-6 -432 -26 -437 -21 -2 2 16 8 40 13 41 9 406 16 397 8z m1114 -143 c-369 -2
-977 -2 -1350 0 -373 1 -70 2 672 2 743 0 1048 -1 678 -2z"/>
<path d="M8085 2110 c47 -19 77 -20 460 -20 375 0 416 2 475 19 l65 19 -525 1
-525 0 50 -19z"/>
<path d="M8210 2071 c64 -37 391 -46 565 -17 54 9 101 19 104 21 2 3 -151 5
-340 5 -196 0 -338 -4 -329 -9z"/>
<path d="M3293 1871 c-3 -13 -17 -21 -46 -26 -23 -3 -459 -8 -969 -11 l-928
-6 0 -64 0 -64 1278 0 1279 0 30 43 31 42 -502 -2 c-275 -1 -496 0 -491 2 6 2
237 13 515 26 487 21 506 23 522 43 10 12 18 24 18 29 0 4 -165 7 -366 7 -351
0 -366 -1 -371 -19z"/>
<path d="M1352 1648 l3 -23 1145 -5 c1316 -6 1316 -6 470 -70 -508 -39 -522
-40 -1047 -40 -453 0 -533 -2 -533 -14 0 -25 39 -106 83 -173 l42 -65 500 6
c275 3 554 8 620 11 173 6 106 -9 -180 -41 -190 -22 -307 -28 -560 -33 l-319
-6 54 -43 55 -44 90 9 c99 9 496 7 645 -4 l95 -6 -90 -18 c-67 -13 -141 -18
-290 -18 -110 -1 -238 -4 -284 -8 l-84 -6 34 -18 c23 -12 59 -19 109 -20 71
-2 73 -2 25 -9 l-50 -6 30 -14 c35 -17 92 -17 510 -5 160 4 288 5 285 2 -13
-14 -205 -37 -353 -44 -113 -4 -154 -9 -141 -16 24 -14 265 -2 384 19 93 16
329 77 355 91 8 5 -68 7 -168 6 -100 -1 -175 1 -167 4 8 3 24 13 35 23 31 26
257 60 405 60 l125 1 104 58 103 59 -53 11 c-30 7 -73 15 -97 18 -23 3 -41 8
-39 10 9 8 185 33 238 33 50 0 61 4 119 48 l64 47 -239 5 c-287 6 -263 17 55
26 l225 7 44 40 43 40 -63 -7 c-35 -3 -176 -8 -314 -11 l-250 -4 170 14 c94 8
231 24 305 35 74 12 151 24 172 27 25 4 48 18 74 44 l38 39 -1268 0 -1267 0 3
-22z m951 -205 c-18 -2 -48 -2 -65 0 -18 2 -4 4 32 4 36 0 50 -2 33 -4z m847
-197 c83 -14 79 -20 -27 -35 -74 -11 -471 -16 -461 -5 10 9 300 52 358 52 30
0 89 -5 130 -12z"/>
</g>
</svg>
